<?xml version="1.0" encoding="UTF-8" standalone="no"?>
<!DOCTYPE svg PUBLIC "-//W3C//DTD SVG 1.1//EN" "http://www.w3.org/Graphics/SVG/1.1/DTD/svg11.dtd">
<svg width="100%" height="100%" viewBox="0 0 84 72" version="1.1" xmlns="http://www.w3.org/2000/svg" xmlns:xlink="http://www.w3.org/1999/xlink" xml:space="preserve" xmlns:serif="http://www.serif.com/" style="fill-rule:evenodd;clip-rule:evenodd;stroke-linejoin:round;stroke-miterlimit:2;">
    <g transform="matrix(1,0,0,1,-1406.22,-625.199)">
        <g transform="matrix(1,0,0,1,1400.8,696)">
            <g id="Regular-S">
                <path d="M5.42,-35.254C5.42,-33.936 5.957,-32.373 7.275,-31.104L37.549,-2.441C39.648,-0.537 41.309,0.293 43.359,0.293C46.143,0.293 48.291,-1.758 48.291,-4.541L48.291,-19.775L79.688,-19.775C85.498,-19.775 88.916,-23.047 88.916,-28.76L88.916,-41.797C88.916,-47.461 85.498,-50.781 79.688,-50.781L48.291,-50.781L48.291,-65.674C48.291,-68.457 46.143,-70.801 43.262,-70.801C41.211,-70.801 39.844,-69.922 37.549,-67.773L7.275,-39.453C5.957,-38.135 5.42,-36.621 5.42,-35.254Z" style="fill:white;fill-rule:nonzero;"/>
            </g>
        </g>
    </g>
</svg>
