<?xml version="1.0" encoding="UTF-8" standalone="no"?>
<!DOCTYPE svg PUBLIC "-//W3C//DTD SVG 1.1//EN" "http://www.w3.org/Graphics/SVG/1.1/DTD/svg11.dtd">
<svg width="100%" height="100%" viewBox="0 0 101 102" version="1.1" xmlns="http://www.w3.org/2000/svg" xmlns:xlink="http://www.w3.org/1999/xlink" xml:space="preserve" xmlns:serif="http://www.serif.com/" style="fill-rule:evenodd;clip-rule:evenodd;stroke-linejoin:round;stroke-miterlimit:2;">
    <g transform="matrix(1,0,0,1,-9.77,85.791)">
        <g>
            <g id="Regular-S">
                <path d="M9.766,-24.756C9.766,-15.332 16.211,-8.74 25.293,-8.74C28.174,-8.74 31.299,-9.473 34.57,-11.084C36.67,-9.229 42.139,-6.006 49.219,-5.566C47.852,-11.768 43.408,-20.654 40.967,-25.293C47.363,-25.684 50.977,-29.004 52.686,-33.496C54.736,-32.031 57.178,-31.25 60.254,-31.25C63.281,-31.25 65.723,-32.031 67.822,-33.496C69.482,-29.004 73.144,-25.684 79.492,-25.293C77.051,-20.654 72.607,-11.768 71.24,-5.566C78.32,-6.006 83.789,-9.229 85.938,-11.084C89.209,-9.473 92.285,-8.74 95.166,-8.74C104.297,-8.74 110.693,-15.332 110.693,-24.756C110.693,-29.492 108.74,-34.522 104.346,-39.014C107.861,-42.676 109.277,-47.119 109.277,-51.318C109.277,-60.596 102.197,-69.336 93.164,-70.459C92.676,-79.443 82.519,-85.791 72.998,-85.791C68.115,-85.791 63.623,-84.375 60.254,-80.957C56.836,-84.375 52.344,-85.791 47.461,-85.791C37.94,-85.791 27.783,-79.443 27.295,-70.459C18.262,-69.336 11.182,-60.596 11.182,-51.318C11.182,-47.119 12.647,-42.676 16.113,-39.014C11.719,-34.522 9.766,-29.492 9.766,-24.756ZM60.254,16.113C64.209,16.113 66.748,14.844 66.748,12.793C66.748,10.254 66.065,2.441 66.065,-2.344C66.065,-8.789 71.387,-20.02 79.199,-35.303L73.633,-37.94C67.725,-27.246 65.967,-23.828 63.623,-18.75L63.379,-37.94L56.738,-38.33L56.836,-18.701C54.541,-23.779 52.441,-27.734 47.266,-36.572L43.164,-30.957C49.072,-20.02 54.395,-8.789 54.395,-2.344C54.395,2.441 53.711,10.254 53.711,12.793C53.711,14.844 56.299,16.113 60.254,16.113Z" style="fill:rgb(38,217,59);fill-rule:nonzero;"/>
            </g>
        </g>
    </g>
</svg>
